<svg xmlns="http://www.w3.org/2000/svg" viewBox="0 0 640 360" fill="none" aria-hidden="true">
  <defs>
    <linearGradient id="frame-shine" x1="0%" y1="0%" x2="100%" y2="100%">
      <stop offset="0%" stop-color="#3a4652"/>
      <stop offset="45%" stop-color="#1a2229"/>
      <stop offset="100%" stop-color="#0f1419"/>
    </linearGradient>
    <linearGradient id="metal-bridge" x1="0%" y1="0%" x2="100%" y2="0%">
      <stop offset="0%" stop-color="#6b7280"/>
      <stop offset="50%" stop-color="#d1d5db"/>
      <stop offset="100%" stop-color="#6b7280"/>
    </linearGradient>
    <clipPath id="lens-left">
      <path d="M88 168c0-58 42-98 108-98 52 0 92 28 108 68 8 20 8 44 0 64-16 40-4 98-108 98-66 0-108-40-108-132Z"/>
    </clipPath>
    <clipPath id="lens-right">
      <path d="M336 168c0-58 42-98 108-98 52 0 92 28 108 68 8 20 8 44 0 64-16 52-4 98-108 98-66 0-108-40-108-132Z"/>
    </clipPath>
    <filter id="lens-glow" x="-20%" y="-20%" width="140%" height="140%">
      <feGaussianBlur stdDeviation="6" result="blur"/>
      <feMerge>
        <feMergeNode in="blur"/>
        <feMergeNode in="SourceGraphic"/>
      </feMerge>
    </filter>
  </defs>

  <ellipse cx="320" cy="300" rx="220" ry="18" fill="#000" opacity="0.35"/>

  <path d="M40 168c0-72 56-128 156-128 68 0 120 36 144 88 24-52 76-88 144-88 100 0 156 56 156 128 0 88-68 152-156 152-58 0-104-28-144-72-40 44-86 72-144 72-88 0-156-64-156-152Z" fill="url(#frame-shine)" stroke="#2a3440" stroke-width="2"/>

  <path d="M196 70c-52 0-92 28-108 68-8 20-8 44 0 64 16 40 56 68 108 68 66 0 108-40 108-98 0-58-42-98-108-98Z" fill="#0a1018" opacity="0.92"/>
  <path d="M444 70c-52 0-92 28-108 68-8 20-8 44 0 64 16 40 56 68 108 68 66 0 108-40 108-98 0-58-42-98-108-98Z" fill="#0a1018" opacity="0.92"/>

  <g clip-path="url(#lens-left)" data-lens="left">
    <rect width="320" height="360" fill="transparent"/>
  </g>
  <g clip-path="url(#lens-right)" data-lens="right">
    <rect x="320" width="320" height="360" fill="transparent"/>
  </g>

  <path d="M196 70c-52 0-92 28-108 68-8 20-8 44 0 64 16 40 56 68 108 68 66 0 108-40 108-98 0-58-42-98-108-98Z" fill="none" stroke="rgba(255,255,255,0.08)" stroke-width="1.5"/>
  <path d="M444 70c-52 0-92 28-108 68-8 20-8 44 0 64 16 40 56 68 108 68 66 0 108-40 108-98 0-58-42-98-108-98Z" fill="none" stroke="rgba(255,255,255,0.08)" stroke-width="1.5"/>

  <path d="M304 148h32" stroke="url(#metal-bridge)" stroke-width="5" stroke-linecap="round"/>
  <path d="M248 148c-8-12-28-20-48-20M392 148c8-12 28-20 48-20" stroke="#1f2937" stroke-width="6" stroke-linecap="round"/>

  <path d="M108 168c-24 0-44 8-56 20M532 168c24 0 44 8 56 20" stroke="#111827" stroke-width="5" stroke-linecap="round"/>

  <path d="M148 118c28-18 56-24 88-24M452 118c-28-18-56-24-88-24" stroke="rgba(255,255,255,0.06)" stroke-width="2" stroke-linecap="round"/>
</svg>
